# xmcd CD database file
#
# Track frame offsets:
#	150
#	13109
#	30048
#	43575
#	61186
#	81394
#	99296
#	117281
#
# Disc length: 1707 seconds
#
# Revision: 0
# Processed by: cddbd v1.5.2PL0 Copyright (c) Steve Scherf et al.
# Submitted via: CDex 1.70beta3
#
DISCID=5406a908
DTITLE=Ruby Braff - Holiday In Braff
DYEAR=1955
DGENRE=Jazz
TTITLE0=When You're Smiling
TTITLE1=Easy Living
TTITLE2=Pullin' Through
TTITLE3=You're A Lucky Guy
TTITLE4=Flowers For A Lady
TTITLE5=Foolin' Myself
TTITLE6=I'll Be Around
TTITLE7=It's Too Easy To Blame The Weather
EXTD=YEAR: 1955
EXTT0=
EXTT1=
EXTT2=
EXTT3=
EXTT4=
EXTT5=
EXTT6=
EXTT7=
PLAYORDER=
